<svg xmlns="http://www.w3.org/2000/svg" xmlns:xlink="http://www.w3.org/1999/xlink" width="500" height="500" version="1.2" viewBox="0 0 375 375"><defs><clipPath id="clip1"><path d="M 170 172 L 349 172 L 349 319 L 170 319 Z M 170 172"/></clipPath><clipPath id="clip2"><path d="M 390.371094 232.183594 L 237.40625 362.582031 L 148.367188 258.132812 L 301.328125 127.734375 Z M 390.371094 232.183594"/></clipPath><clipPath id="clip3"><path d="M 301.285156 127.683594 L 148.320312 258.078125 L 237.359375 362.527344 L 390.324219 232.128906 Z M 301.285156 127.683594"/></clipPath><clipPath id="clip4"><path d="M 301.308594 127.710938 L 148.296875 258.148438 L 237.453125 362.730469 L 390.464844 232.292969 Z M 301.308594 127.710938"/></clipPath><clipPath id="clip5"><path d="M 301.308594 127.710938 L 148.355469 258.097656 L 237.363281 362.511719 L 390.316406 232.121094 Z M 301.308594 127.710938"/></clipPath><clipPath id="clip6"><path d="M 25 57 L 216 57 L 216 266 L 25 266 Z M 25 57"/></clipPath><clipPath id="clip7"><path d="M -27.214844 83.574219 L 160.597656 7.867188 L 269.953125 279.15625 L 82.136719 354.863281 Z M -27.214844 83.574219"/></clipPath><clipPath id="clip8"><path d="M -27.214844 83.574219 L 160.597656 7.867188 L 269.953125 279.15625 L 82.136719 354.863281 Z M -27.214844 83.574219"/></clipPath><clipPath id="clip9"><path d="M 39 80 L 230 80 L 230 301 L 39 301 Z M 39 80"/></clipPath><clipPath id="clip10"><path d="M -27.214844 83.574219 L 160.597656 7.867188 L 269.953125 279.15625 L 82.136719 354.863281 Z M -27.214844 83.574219"/></clipPath><clipPath id="clip11"><path d="M -27.214844 83.574219 L 160.597656 7.867188 L 269.953125 279.15625 L 82.136719 354.863281 Z M -27.214844 83.574219"/></clipPath></defs><g id="surface1"><g clip-path="url(#clip1)" clip-rule="nonzero"><g clip-path="url(#clip2)" clip-rule="nonzero"><g clip-path="url(#clip3)" clip-rule="nonzero"><g clip-path="url(#clip4)" clip-rule="nonzero"><g clip-path="url(#clip5)" clip-rule="nonzero"><path style="stroke:none;fill-rule:evenodd;fill:#0dbe54;fill-opacity:1" d="M 317.390625 203.554688 C 320.921875 200.542969 321.34375 195.273438 318.332031 191.742188 C 315.363281 188.257812 310.054688 187.792969 306.519531 190.804688 C 302.984375 193.816406 302.605469 199.132812 305.578125 202.617188 C 308.585938 206.148438 313.855469 206.566406 317.390625 203.554688 Z M 290.949219 223.476562 C 282.269531 213.296875 280.496094 199.6875 285.429688 188.835938 C 285.195312 198.136719 289.199219 208.972656 297.097656 218.234375 C 304.992188 227.496094 315.019531 233.121094 324.28125 234.414062 C 312.785156 237.566406 299.628906 233.660156 290.949219 223.476562 Z M 255.9375 196.628906 C 243.640625 207.113281 233.007812 222.4375 225.332031 238.714844 C 223.835938 236.589844 222.207031 234.492188 220.488281 232.476562 C 219.976562 231.878906 219.46875 231.28125 218.917969 230.722656 C 227.648438 206.574219 233.671875 185.289062 246.375 174.535156 C 246.972656 174.027344 247.523438 173.558594 248.160156 173.097656 C 260.101562 172.417969 272.136719 174.269531 283.292969 178.617188 C 274.324219 182.78125 265.070312 188.84375 255.9375 196.628906 Z M 317.164062 294.480469 C 313.976562 287.300781 309.738281 280.46875 304.417969 274.226562 C 303.519531 273.175781 302.660156 272.164062 301.714844 271.148438 C 305.765625 268.648438 309.488281 265.953125 312.929688 263.019531 C 318.480469 258.285156 323.363281 253.410156 327.644531 248.488281 C 328.519531 264.292969 325.019531 280.265625 317.164062 294.480469 Z M 310.269531 259.898438 C 281.371094 284.929688 260.117188 287.050781 233.789062 289.070312 C 234.097656 291.105469 234.042969 293.367188 233.554688 295.765625 C 231.054688 308.820312 216.34375 318.429688 216.167969 318.5 C 210.433594 312.703125 206.390625 302.292969 207.917969 294.417969 C 207.972656 294.292969 207.980469 294.207031 207.992188 294.039062 C 207.214844 294.148438 206.390625 294.296875 205.609375 294.40625 C 194.03125 295.882812 178.988281 290.96875 170.75 284.375 C 170.898438 284.171875 185.433594 268.136719 204.480469 265.753906 C 209.925781 265.074219 214.808594 265.503906 218.847656 266.804688 C 225.53125 242.109375 240.246094 215.3125 258.785156 199.507812 C 286.414062 175.953125 314.882812 168.636719 334.609375 178.023438 C 334.90625 177.535156 335.335938 177.011719 335.839844 176.582031 C 338.132812 174.625 341.53125 174.894531 343.484375 177.183594 C 355.25 190.988281 345.226562 229.703125 310.269531 259.898438"/></g></g></g></g></g><g clip-path="url(#clip6)" clip-rule="nonzero"><g clip-path="url(#clip7)" clip-rule="nonzero"><g clip-path="url(#clip8)" clip-rule="nonzero"><path style="stroke:none;fill-rule:nonzero;fill:#08e06b;fill-opacity:1" d="M 192.722656 140.46875 C 235.527344 193.734375 203.546875 259.382812 203.546875 259.382812 C 203.546875 259.382812 116.582031 286.910156 66.171875 225.207031 C -5.511719 137.457031 38.351562 57.179688 38.351562 57.179688 C 38.351562 57.179688 44.652344 81.421875 76.199219 89.78125 C 113.9375 99.78125 154.632812 93.074219 192.722656 140.46875"/></g></g></g><g clip-path="url(#clip9)" clip-rule="nonzero"><g clip-path="url(#clip10)" clip-rule="nonzero"><g clip-path="url(#clip11)" clip-rule="nonzero"><path style="stroke:none;fill-rule:nonzero;fill:#0dbe54;fill-opacity:1" d="M 215.835938 300.847656 C 215.835938 300.847656 210.457031 253.695312 154.660156 197.660156 C 118.445312 161.289062 96.007812 165.488281 64.226562 136.023438 C 37.203125 110.964844 39.027344 80.199219 39.027344 80.199219 C 39.027344 80.199219 39.679688 106.371094 65.199219 130.613281 C 87.066406 151.386719 123.164062 148.730469 157.464844 178.453125 C 203.25 218.121094 229.714844 289.53125 229.714844 289.53125 L 215.835938 300.847656"/></g></g></g></g></svg>