<?xml version="1.0" encoding="UTF-8"?>
<svg xmlns="http://www.w3.org/2000/svg" xmlns:xlink="http://www.w3.org/1999/xlink" width="375pt" height="374.999991pt" viewBox="0 0 375 374.999991" version="1.2">
<defs>
<clipPath id="clip1">
  <path d="M 115 81 L 342 81 L 342 323 L 115 323 Z M 115 81 "/>
</clipPath>
<clipPath id="clip2">
  <path d="M 412.316406 147.363281 L 233.570312 378.890625 L 75.0625 256.519531 L 253.808594 24.988281 Z M 412.316406 147.363281 "/>
</clipPath>
<clipPath id="clip3">
  <path d="M 253.828125 25.003906 L 75.082031 256.53125 L 233.589844 378.90625 L 412.335938 147.378906 Z M 253.828125 25.003906 "/>
</clipPath>
<clipPath id="clip4">
  <path d="M 253.875 25.039062 L 75.070312 256.640625 L 233.777344 379.167969 L 412.578125 147.566406 Z M 253.875 25.039062 "/>
</clipPath>
<clipPath id="clip5">
  <path d="M 253.875 25.039062 L 75.140625 256.554688 L 233.582031 378.878906 L 412.320312 147.363281 Z M 253.875 25.039062 "/>
</clipPath>
<clipPath id="clip6">
  <path d="M 29 41 L 204 41 L 204 273 L 29 273 Z M 29 41 "/>
</clipPath>
<clipPath id="clip7">
  <path d="M -11.925781 54.652344 L 187.085938 17.238281 L 241.128906 304.703125 L 42.117188 342.117188 Z M -11.925781 54.652344 "/>
</clipPath>
<clipPath id="clip8">
  <path d="M -11.925781 54.652344 L 187.085938 17.238281 L 241.128906 304.703125 L 42.117188 342.117188 Z M -11.925781 54.652344 "/>
</clipPath>
<clipPath id="clip9">
  <path d="M -11.925781 54.652344 L 187.167969 17.222656 L 241.148438 304.355469 L 42.054688 341.785156 Z M -11.925781 54.652344 "/>
</clipPath>
<clipPath id="clip10">
  <path d="M 52 64 L 200 64 L 200 316 L 52 316 Z M 52 64 "/>
</clipPath>
<clipPath id="clip11">
  <path d="M -11.925781 54.652344 L 187.085938 17.238281 L 241.128906 304.703125 L 42.117188 342.117188 Z M -11.925781 54.652344 "/>
</clipPath>
<clipPath id="clip12">
  <path d="M -11.925781 54.652344 L 187.085938 17.238281 L 241.128906 304.703125 L 42.117188 342.117188 Z M -11.925781 54.652344 "/>
</clipPath>
<clipPath id="clip13">
  <path d="M -11.925781 54.652344 L 187.167969 17.222656 L 241.148438 304.355469 L 42.054688 341.785156 Z M -11.925781 54.652344 "/>
</clipPath>
</defs>
<g id="surface1">
<g clip-path="url(#clip1)" clip-rule="nonzero">
<g clip-path="url(#clip2)" clip-rule="nonzero">
<g clip-path="url(#clip3)" clip-rule="nonzero">
<g clip-path="url(#clip4)" clip-rule="nonzero">
<g clip-path="url(#clip5)" clip-rule="nonzero">
<path style=" stroke:none;fill-rule:evenodd;fill:rgb(42.349243%,67.83905%,12.939453%);fill-opacity:1;" d="M 299.703125 128.378906 C 303.832031 123.03125 302.839844 115.394531 297.484375 111.257812 C 292.195312 107.175781 284.484375 108.09375 280.355469 113.441406 C 276.226562 118.792969 277.289062 126.484375 282.578125 130.566406 C 287.933594 134.703125 295.574219 133.730469 299.703125 128.378906 Z M 268.019531 164.671875 C 252.566406 152.742188 245.929688 133.871094 249.6875 116.925781 C 252.160156 130.253906 261.144531 144.511719 275.203125 155.363281 C 289.257812 166.214844 305.253906 171.246094 318.851562 170.320312 C 303.410156 178.246094 283.46875 176.597656 268.019531 164.671875 Z M 209.988281 136.832031 C 195.617188 155.449219 185.082031 180.464844 179.050781 205.964844 C 176.273438 203.375 173.320312 200.875 170.257812 198.511719 C 169.351562 197.8125 168.449219 197.113281 167.492188 196.484375 C 172.648438 159.449219 174.8125 127.304688 189.679688 108.183594 C 190.378906 107.28125 191.023438 106.445312 191.789062 105.597656 C 208.613281 101.070312 226.339844 100.121094 243.554688 102.992188 C 232.023438 111.605469 220.660156 123.007812 209.988281 136.832031 Z M 326.835938 258.085938 C 320.121094 248.800781 312.011719 240.320312 302.542969 233.011719 C 300.949219 231.777344 299.417969 230.597656 297.761719 229.429688 C 302.78125 224.65625 307.277344 219.703125 311.296875 214.496094 C 317.785156 206.089844 323.273438 197.683594 327.894531 189.390625 C 333.914062 211.664062 333.742188 235.480469 326.835938 258.085938 Z M 306.558594 210.839844 C 272.910156 255.144531 243.246094 264.503906 206.3125 275.238281 C 207.367188 278.042969 207.972656 281.285156 208 284.851562 C 208.378906 304.210938 190.300781 322.296875 190.074219 322.453125 C 180.144531 315.894531 171.234375 302.257812 171.039062 290.570312 C 171.078125 290.382812 171.0625 290.253906 171.03125 290.011719 C 169.949219 290.398438 168.820312 290.859375 167.742188 291.246094 C 151.679688 296.800781 128.746094 294.285156 115.007812 287.339844 C 115.152344 287.003906 131.042969 259.804688 157.484375 250.730469 C 165.039062 248.136719 172.132812 247.296875 178.289062 247.945312 C 180.359375 210.742188 193.253906 168.144531 214.917969 140.085938 C 247.203125 98.265625 285.585938 79.34375 316.554688 86.84375 C 316.828125 86.058594 317.28125 85.183594 317.867188 84.421875 C 320.550781 80.949219 325.476562 80.320312 328.953125 83.003906 C 349.902344 99.175781 347.296875 157.363281 306.558594 210.839844 "/>
</g>
</g>
</g>
</g>
</g>
<g clip-path="url(#clip6)" clip-rule="nonzero">
<g clip-path="url(#clip7)" clip-rule="nonzero">
<g clip-path="url(#clip8)" clip-rule="nonzero">
<g clip-path="url(#clip9)" clip-rule="nonzero">
<path style=" stroke:none;fill-rule:nonzero;fill:rgb(50.19989%,79.998779%,15.689087%);fill-opacity:1;" d="M 192.632812 153.394531 C 224.160156 213.945312 179.898438 272 179.898438 272 C 179.898438 272 89.1875 281.953125 51.859375 211.65625 C -1.21875 111.679688 57.570312 41.621094 57.570312 41.621094 C 57.570312 41.621094 58.992188 66.597656 88.292969 80.957031 C 123.347656 98.132812 164.582031 99.519531 192.632812 153.394531 "/>
</g>
</g>
</g>
</g>
<g clip-path="url(#clip10)" clip-rule="nonzero">
<g clip-path="url(#clip11)" clip-rule="nonzero">
<g clip-path="url(#clip12)" clip-rule="nonzero">
<g clip-path="url(#clip13)" clip-rule="nonzero">
<path style=" stroke:none;fill-rule:nonzero;fill:rgb(42.349243%,67.83905%,12.939453%);fill-opacity:1;" d="M 183.804688 315.019531 C 183.804688 315.019531 187.792969 267.777344 144.066406 201.976562 C 115.6875 159.265625 92.855469 158.992188 67.46875 123.914062 C 45.882812 94.082031 53.714844 64.300781 53.714844 64.300781 C 53.714844 64.300781 49.214844 90.066406 69.484375 118.804688 C 86.851562 143.429688 122.78125 147.886719 150.589844 183.707031 C 187.710938 231.519531 199.644531 306.648438 199.644531 306.648438 L 183.804688 315.019531 "/>
</g>
</g>
</g>
</g>
</g>
</svg>
